<svg xmlns="http://www.w3.org/2000/svg" xmlns:xlink="http://www.w3.org/1999/xlink" width="500" zoomAndPan="magnify" viewBox="0 0 375 374.999991" height="500" preserveAspectRatio="xMidYMid meet" version="1.0"><defs><g/></defs><g fill="#efece6" fill-opacity="1"><g transform="translate(-4.69185, 281.608306)"><g>
<path d="M 8.800781 -204.296875 L 9.113281 0.3125 L 84.234375 0.3125 L 84.234375 -71.03125 C 84.234375 -98.378906 127.921875 -98.0625 127.921875 -70.40625 L 127.921875 0.3125 L 203.042969 0.3125 L 203.042969 -204.296875 L 127.609375 -204.296875 L 127.921875 -123.835938 C 110.007812 -129.179688 88.949219 -116.292969 88.320312 -94.605469 L 84.234375 -94.605469 C 84.234375 -131.066406 83.917969 -167.839844 83.917969 -204.296875 Z M 8.800781 -204.296875 "/>
<path d="M 49.347656 -115.664062 L 49.660156 0 L 126.980469 0 L 126.664062 -119.75 L 162.808594 -119.75 L 162.808594 -204.296875 L 8.171875 -204.296875 L 8.171875 -119.4375 C 22.628906 -119.4375 77.949219 -116.292969 77.320312 -161.238281 C 77.003906 -178.210938 69.148438 -185.753906 58.773438 -191.726562 L 60.03125 -195.183594 C 117.234375 -186.070312 101.835938 -118.492188 49.347656 -115.664062 Z M 49.347656 -115.664062 "/></g></g></g></svg>