<svg xmlns="http://www.w3.org/2000/svg" xmlns:xlink="http://www.w3.org/1999/xlink" width="500" zoomAndPan="magnify" viewBox="0 0 375 374.999991" height="500" preserveAspectRatio="xMidYMid meet" version="1.0"><defs><g/></defs><g fill="#efece6" fill-opacity="1"><g transform="translate(-8.060809, 294.034418)"><g><path d="M 51.859375 -121.550781 L 52.1875 0 L 133.441406 0 L 133.113281 -125.847656 L 171.097656 -125.847656 L 171.097656 -214.699219 L 8.589844 -214.699219 L 8.589844 -125.515625 C 23.78125 -125.515625 81.914062 -122.214844 81.253906 -169.445312 C 80.925781 -187.28125 72.667969 -195.210938 61.765625 -201.484375 L 63.089844 -205.121094 C 123.203125 -195.539062 107.019531 -124.523438 51.859375 -121.550781 Z M 51.859375 -121.550781 "/></g></g></g><g fill="#efece6" fill-opacity="1"><g transform="translate(168.312187, 294.034418)"><g><path d="M 62.757812 0 L 204.789062 0 L 204.789062 -127.167969 C 204.789062 -184.972656 170.105469 -214.699219 112.304688 -214.699219 L 25.101562 -214.699219 L 24.773438 -127.828125 C 24.773438 -127.828125 101.734375 -118.578125 102.726562 -170.769531 C 102.726562 -182.988281 98.761719 -191.90625 92.484375 -198.183594 L 94.796875 -201.484375 C 111.644531 -192.566406 122.542969 -176.382812 121.882812 -148.636719 L 121.882812 -117.257812 L 70.355469 -117.257812 C -14.203125 -117.257812 -19.816406 0 62.757812 0 Z M 122.542969 -107.679688 L 122.542969 -49.875 C 131.460938 -48.222656 138.066406 -40.628906 138.066406 -31.378906 C 138.066406 -21.140625 129.808594 -12.882812 119.570312 -12.882812 C 98.761719 -12.882812 89.84375 -44.589844 90.171875 -60.117188 C 90.503906 -81.914062 103.714844 -100.414062 122.542969 -107.679688 Z M 122.542969 -107.679688 "/></g></g></g></svg>